<svg width="206" height="236" viewBox="0 0 206 236" fill="none" xmlns="http://www.w3.org/2000/svg">
<path d="M189.09 102.479L40.5883 102.456C23.7368 103.845 22.0689 127.06 38.4513 130.94L166.33 131.001C187.725 132.739 188.361 162.844 166.885 165.11L63.6369 165.102C46.2887 166.554 46.9325 192.109 62.8045 193.641C80.2357 195.324 106.587 187.07 114.971 208.058C117.649 214.759 116.295 223.167 116.376 230.649H116.29C116.295 230.666 116.298 230.682 116.3 230.699C116.842 230.84 116.839 230.489 117.083 230.239C117.999 229.311 120.605 225.85 121.881 226.129C122.845 226.337 123.352 227.543 122.698 228.363L115.901 235.15C115.41 235.549 114.694 235.549 114.202 235.15L107.134 227.779C106.945 226.498 108.041 225.982 109.165 226.323C110.053 226.592 113.195 230.996 113.803 230.425C113.875 229.976 113.944 229.566 114.008 229.194C114.008 228.009 114.019 226.825 114.016 225.639C114.005 220.282 114.438 213.988 112.39 208.975C109.557 202.041 102.721 197.105 95.236 196.451C85.0091 195.554 73.6085 197.194 63.3453 196.426C43.0416 194.902 42.5143 164.054 63.6395 162.331C98.9134 162.048 134.306 162.877 169.513 161.912C185.086 157.099 182.691 134.997 166.053 133.772L38.4513 133.712C18.4527 129.79 20.0402 101.5 40.3108 99.6852L190.431 99.6603C207.338 96.5311 206.008 72.9058 189.088 71.1402L15.3749 71.121C-3.68842 67.5654 -3.70226 40.8665 15.4221 37.4162C34.0608 37.2194 52.8413 37.4107 71.3937 37.3525C87.8982 37.2998 109.562 41.4153 113.725 20.0179L113.867 13.5801C110.225 12.3995 107.894 8.93257 109.096 5.1137C109.673 3.27076 111.927 1.07865 113.883 0.748858C122.914 -0.775356 125.009 11.5986 116.486 13.4637C116.481 13.5108 116.478 13.5551 116.475 13.6022C116.478 18.2581 116.736 21.6363 114.608 26.4418C110.689 35.2934 102.491 39.6416 93.0631 40.1238C74.6547 41.0633 55.2306 39.6998 36.7001 39.8217C30.5113 39.8633 21.8469 39.528 15.9328 40.146C-0.102754 41.8254 -0.327548 67.2022 17.0123 68.6518L189.085 68.369C210.485 70.5361 210.799 100.575 189.09 102.479ZM117.544 3.88877C113.25 1.02878 109.315 7.15895 112.654 10.0189C116.803 13.5718 122.167 6.97047 117.544 3.88877Z" fill="#DDDDDD"/>
<path d="M113.822 0.55813C122.901 -0.974173 125.008 11.4665 116.439 13.3417C116.433 13.3891 116.431 13.4337 116.428 13.481C116.431 18.1619 116.69 21.5584 114.55 26.3898C110.61 35.2892 102.367 39.661 92.8891 40.1458C74.3811 41.0904 54.8514 39.7198 36.2209 39.8424C29.9986 39.8842 21.2873 39.5468 15.3413 40.1681C-0.781026 41.8566 -1.00691 67.371 16.4268 68.8284L51.3481 68.7705V71.3149L14.7803 71.311C-4.38606 67.7361 -4.39997 40.8926 14.8278 37.4236C33.5674 37.2257 52.4496 37.4182 71.1024 37.3597C87.6962 37.3069 109.477 41.4443 113.663 19.9313L113.805 13.4587C110.144 12.2718 107.8 8.7861 109.008 4.94661C109.589 3.09372 111.854 0.889711 113.822 0.55813ZM117.502 3.71493C113.186 0.83945 109.229 7.00262 112.586 9.87809C116.757 13.4498 122.15 6.81334 117.502 3.71493Z" fill="#C00034"/>
<path d="M52.8726 71.753C53.8421 71.753 54.628 70.9671 54.628 69.9976C54.628 69.0281 53.8421 68.2422 52.8726 68.2422C51.9031 68.2422 51.1172 69.0281 51.1172 69.9976C51.1172 70.9671 51.9031 71.753 52.8726 71.753Z" fill="white" stroke="#C00034" stroke-width="0.438849"/>
<path d="M18.2821 60.6992V49.8233L19.2358 50.8105H15.8057V48.9866H20.4573V60.6992H18.2821Z" fill="#23F626"/>
<path d="M27.6646 57.6992V51.8192H30.4198C31.1254 51.8192 31.663 51.9592 32.0326 52.2392C32.4022 52.5136 32.587 52.8832 32.587 53.348C32.587 53.6616 32.5142 53.9304 32.3686 54.1544C32.223 54.3728 32.027 54.5436 31.7806 54.6668C31.5398 54.7844 31.2766 54.8432 30.991 54.8432L31.1422 54.5408C31.4726 54.5408 31.7694 54.6024 32.0326 54.7256C32.2958 54.8432 32.503 55.0168 32.6542 55.2464C32.811 55.476 32.8894 55.7616 32.8894 56.1032C32.8894 56.6072 32.6962 56.9992 32.3098 57.2792C31.9234 57.5592 31.3494 57.6992 30.5878 57.6992H27.6646ZM28.7566 56.8424H30.5206C30.9294 56.8424 31.243 56.7752 31.4614 56.6408C31.6798 56.5064 31.789 56.2908 31.789 55.994C31.789 55.7028 31.6798 55.49 31.4614 55.3556C31.243 55.2156 30.9294 55.1456 30.5206 55.1456H28.6726V54.2972H30.3022C30.683 54.2972 30.9742 54.23 31.1758 54.0956C31.383 53.9612 31.4866 53.7596 31.4866 53.4908C31.4866 53.2164 31.383 53.012 31.1758 52.8776C30.9742 52.7432 30.683 52.676 30.3022 52.676H28.7566V56.8424ZM33.954 57.6992V53.2136H34.9536V54.4484L34.836 54.0872C34.9704 53.7848 35.1804 53.5552 35.466 53.3984C35.7572 53.2416 36.1184 53.1632 36.5496 53.1632V54.1628C36.5048 54.1516 36.4628 54.146 36.4236 54.146C36.3844 54.1404 36.3452 54.1376 36.306 54.1376C35.9084 54.1376 35.592 54.2552 35.3568 54.4904C35.1216 54.72 35.004 55.0644 35.004 55.5236V57.6992H33.954ZM39.4153 57.758C38.9561 57.758 38.5473 57.66 38.1889 57.464C37.8305 57.2624 37.5477 56.988 37.3405 56.6408C37.1333 56.2936 37.0297 55.8988 37.0297 55.4564C37.0297 55.0084 37.1333 54.6136 37.3405 54.272C37.5477 53.9248 37.8305 53.6532 38.1889 53.4572C38.5473 53.2612 38.9561 53.1632 39.4153 53.1632C39.8801 53.1632 40.2917 53.2612 40.6501 53.4572C41.0141 53.6532 41.2969 53.922 41.4985 54.2636C41.7057 54.6052 41.8093 55.0028 41.8093 55.4564C41.8093 55.8988 41.7057 56.2936 41.4985 56.6408C41.2969 56.988 41.0141 57.2624 40.6501 57.464C40.2917 57.66 39.8801 57.758 39.4153 57.758ZM39.4153 56.8592C39.6729 56.8592 39.9025 56.8032 40.1041 56.6912C40.3057 56.5792 40.4625 56.4168 40.5745 56.204C40.6921 55.9912 40.7509 55.742 40.7509 55.4564C40.7509 55.1652 40.6921 54.916 40.5745 54.7088C40.4625 54.496 40.3057 54.3336 40.1041 54.2216C39.9025 54.1096 39.6757 54.0536 39.4237 54.0536C39.1661 54.0536 38.9365 54.1096 38.7349 54.2216C38.5389 54.3336 38.3821 54.496 38.2645 54.7088C38.1469 54.916 38.0881 55.1652 38.0881 55.4564C38.0881 55.742 38.1469 55.9912 38.2645 56.204C38.3821 56.4168 38.5389 56.5792 38.7349 56.6912C38.9365 56.8032 39.1633 56.8592 39.4153 56.8592ZM43.6816 57.6992L42.0352 53.2136H43.0264L44.4376 57.17H43.9672L45.4456 53.2136H46.3276L47.764 57.17H47.302L48.7552 53.2136H49.6876L48.0328 57.6992H47.0248L45.7144 54.1964H46.0252L44.6896 57.6992H43.6816ZM51.7381 57.758C51.3629 57.758 51.0017 57.7104 50.6545 57.6152C50.3129 57.5144 50.0413 57.394 49.8397 57.254L50.2429 56.456C50.4445 56.5848 50.6853 56.6912 50.9653 56.7752C51.2453 56.8592 51.5253 56.9012 51.8053 56.9012C52.1357 56.9012 52.3737 56.8564 52.5193 56.7668C52.6705 56.6772 52.7461 56.5568 52.7461 56.4056C52.7461 56.2824 52.6957 56.19 52.5949 56.1284C52.4941 56.0612 52.3625 56.0108 52.2001 55.9772C52.0377 55.9436 51.8557 55.9128 51.6541 55.8848C51.4581 55.8568 51.2593 55.8204 51.0577 55.7756C50.8617 55.7252 50.6825 55.6552 50.5201 55.5656C50.3577 55.4704 50.2261 55.3444 50.1253 55.1876C50.0245 55.0308 49.9741 54.8236 49.9741 54.566C49.9741 54.2804 50.0553 54.034 50.2177 53.8268C50.3801 53.614 50.6069 53.4516 50.8981 53.3396C51.1949 53.222 51.5449 53.1632 51.9481 53.1632C52.2505 53.1632 52.5557 53.1968 52.8637 53.264C53.1717 53.3312 53.4265 53.4264 53.6281 53.5496L53.2249 54.3476C53.0121 54.2188 52.7965 54.132 52.5781 54.0872C52.3653 54.0368 52.1525 54.0116 51.9397 54.0116C51.6205 54.0116 51.3825 54.0592 51.2257 54.1544C51.0745 54.2496 50.9989 54.37 50.9989 54.5156C50.9989 54.65 51.0493 54.7508 51.1501 54.818C51.2509 54.8852 51.3825 54.9384 51.5449 54.9776C51.7073 55.0168 51.8865 55.0504 52.0825 55.0784C52.2841 55.1008 52.4829 55.1372 52.6789 55.1876C52.8749 55.238 53.0541 55.308 53.2165 55.3976C53.3845 55.4816 53.5189 55.602 53.6197 55.7588C53.7205 55.9156 53.7709 56.12 53.7709 56.372C53.7709 56.652 53.6869 56.8956 53.5189 57.1028C53.3565 57.31 53.1241 57.4724 52.8217 57.59C52.5193 57.702 52.1581 57.758 51.7381 57.758ZM56.7835 57.758C56.2851 57.758 55.8483 57.66 55.4731 57.464C55.1035 57.2624 54.8151 56.988 54.6079 56.6408C54.4063 56.2936 54.3055 55.8988 54.3055 55.4564C54.3055 55.0084 54.4035 54.6136 54.5995 54.272C54.8011 53.9248 55.0755 53.6532 55.4227 53.4572C55.7755 53.2612 56.1759 53.1632 56.6239 53.1632C57.0607 53.1632 57.4499 53.2584 57.7915 53.4488C58.1331 53.6392 58.4019 53.908 58.5979 54.2552C58.7939 54.6024 58.8919 55.0112 58.8919 55.4816C58.8919 55.5264 58.8891 55.5768 58.8835 55.6328C58.8835 55.6888 58.8807 55.742 58.8751 55.7924H55.1371V55.0952H58.3207L57.9091 55.3136C57.9147 55.056 57.8615 54.8292 57.7495 54.6332C57.6375 54.4372 57.4835 54.2832 57.2875 54.1712C57.0971 54.0592 56.8759 54.0032 56.6239 54.0032C56.3663 54.0032 56.1395 54.0592 55.9435 54.1712C55.7531 54.2832 55.6019 54.44 55.4899 54.6416C55.3835 54.8376 55.3303 55.07 55.3303 55.3388V55.5068C55.3303 55.7756 55.3919 56.0136 55.5151 56.2208C55.6383 56.428 55.8119 56.5876 56.0359 56.6996C56.2599 56.8116 56.5175 56.8676 56.8087 56.8676C57.0607 56.8676 57.2875 56.8284 57.4891 56.75C57.6907 56.6716 57.8699 56.5484 58.0267 56.3804L58.5895 57.0272C58.3879 57.2624 58.1331 57.4444 57.8251 57.5732C57.5227 57.6964 57.1755 57.758 56.7835 57.758ZM62.3228 57.6992V51.8192H64.742C65.2628 51.8192 65.708 51.9032 66.0776 52.0712C66.4528 52.2392 66.7412 52.48 66.9428 52.7936C67.1444 53.1072 67.2452 53.4796 67.2452 53.9108C67.2452 54.342 67.1444 54.7144 66.9428 55.028C66.7412 55.3416 66.4528 55.5824 66.0776 55.7504C65.708 55.9184 65.2628 56.0024 64.742 56.0024H62.9276L63.4148 55.49V57.6992H62.3228ZM63.4148 55.6076L62.9276 55.0784H64.6916C65.1732 55.0784 65.5344 54.9776 65.7752 54.776C66.0216 54.5688 66.1448 54.2804 66.1448 53.9108C66.1448 53.5356 66.0216 53.2472 65.7752 53.0456C65.5344 52.844 65.1732 52.7432 64.6916 52.7432H62.9276L63.4148 52.2056V55.6076ZM68.1939 57.6992V53.2136H69.1935V54.4484L69.0759 54.0872C69.2103 53.7848 69.4203 53.5552 69.7059 53.3984C69.9971 53.2416 70.3583 53.1632 70.7895 53.1632V54.1628C70.7447 54.1516 70.7027 54.146 70.6635 54.146C70.6243 54.1404 70.5851 54.1376 70.5459 54.1376C70.1483 54.1376 69.8319 54.2552 69.5967 54.4904C69.3615 54.72 69.2439 55.0644 69.2439 55.5236V57.6992H68.1939ZM73.6552 57.758C73.196 57.758 72.7872 57.66 72.4288 57.464C72.0704 57.2624 71.7876 56.988 71.5804 56.6408C71.3732 56.2936 71.2696 55.8988 71.2696 55.4564C71.2696 55.0084 71.3732 54.6136 71.5804 54.272C71.7876 53.9248 72.0704 53.6532 72.4288 53.4572C72.7872 53.2612 73.196 53.1632 73.6552 53.1632C74.12 53.1632 74.5316 53.2612 74.89 53.4572C75.254 53.6532 75.5368 53.922 75.7384 54.2636C75.9456 54.6052 76.0492 55.0028 76.0492 55.4564C76.0492 55.8988 75.9456 56.2936 75.7384 56.6408C75.5368 56.988 75.254 57.2624 74.89 57.464C74.5316 57.66 74.12 57.758 73.6552 57.758ZM73.6552 56.8592C73.9128 56.8592 74.1424 56.8032 74.344 56.6912C74.5456 56.5792 74.7024 56.4168 74.8144 56.204C74.932 55.9912 74.9908 55.742 74.9908 55.4564C74.9908 55.1652 74.932 54.916 74.8144 54.7088C74.7024 54.496 74.5456 54.3336 74.344 54.2216C74.1424 54.1096 73.9156 54.0536 73.6636 54.0536C73.406 54.0536 73.1764 54.1096 72.9748 54.2216C72.7788 54.3336 72.622 54.496 72.5044 54.7088C72.3868 54.916 72.328 55.1652 72.328 55.4564C72.328 55.742 72.3868 55.9912 72.5044 56.204C72.622 56.4168 72.7788 56.5792 72.9748 56.6912C73.1764 56.8032 73.4032 56.8592 73.6552 56.8592ZM79.5396 57.758C79.1756 57.758 78.8424 57.674 78.54 57.506C78.2432 57.338 78.0052 57.086 77.826 56.75C77.6524 56.4084 77.5656 55.9772 77.5656 55.4564C77.5656 54.93 77.6496 54.4988 77.8176 54.1628C77.9912 53.8268 78.2264 53.5776 78.5232 53.4152C78.82 53.2472 79.1588 53.1632 79.5396 53.1632C79.982 53.1632 80.3712 53.2584 80.7072 53.4488C81.0488 53.6392 81.3176 53.9052 81.5136 54.2468C81.7152 54.5884 81.816 54.9916 81.816 55.4564C81.816 55.9212 81.7152 56.3272 81.5136 56.6744C81.3176 57.016 81.0488 57.282 80.7072 57.4724C80.3712 57.6628 79.982 57.758 79.5396 57.758ZM77.0532 59.3288V53.2136H78.0528V54.272L78.0192 55.4648L78.1032 56.6576V59.3288H77.0532ZM79.422 56.8592C79.674 56.8592 79.898 56.8032 80.094 56.6912C80.2956 56.5792 80.4552 56.4168 80.5728 56.204C80.6904 55.9912 80.7492 55.742 80.7492 55.4564C80.7492 55.1652 80.6904 54.916 80.5728 54.7088C80.4552 54.496 80.2956 54.3336 80.094 54.2216C79.898 54.1096 79.674 54.0536 79.422 54.0536C79.17 54.0536 78.9432 54.1096 78.7416 54.2216C78.54 54.3336 78.3804 54.496 78.2628 54.7088C78.1452 54.916 78.0864 55.1652 78.0864 55.4564C78.0864 55.742 78.1452 55.9912 78.2628 56.204C78.3804 56.4168 78.54 56.5792 78.7416 56.6912C78.9432 56.8032 79.17 56.8592 79.422 56.8592ZM84.9202 57.758C84.4218 57.758 83.985 57.66 83.6098 57.464C83.2402 57.2624 82.9518 56.988 82.7446 56.6408C82.543 56.2936 82.4422 55.8988 82.4422 55.4564C82.4422 55.0084 82.5402 54.6136 82.7362 54.272C82.9378 53.9248 83.2122 53.6532 83.5594 53.4572C83.9122 53.2612 84.3126 53.1632 84.7606 53.1632C85.1974 53.1632 85.5866 53.2584 85.9282 53.4488C86.2698 53.6392 86.5386 53.908 86.7346 54.2552C86.9306 54.6024 87.0286 55.0112 87.0286 55.4816C87.0286 55.5264 87.0258 55.5768 87.0202 55.6328C87.0202 55.6888 87.0174 55.742 87.0118 55.7924H83.2738V55.0952H86.4574L86.0458 55.3136C86.0514 55.056 85.9982 54.8292 85.8862 54.6332C85.7742 54.4372 85.6202 54.2832 85.4242 54.1712C85.2338 54.0592 85.0126 54.0032 84.7606 54.0032C84.503 54.0032 84.2762 54.0592 84.0802 54.1712C83.8898 54.2832 83.7386 54.44 83.6266 54.6416C83.5202 54.8376 83.467 55.07 83.467 55.3388V55.5068C83.467 55.7756 83.5286 56.0136 83.6518 56.2208C83.775 56.428 83.9486 56.5876 84.1726 56.6996C84.3966 56.8116 84.6542 56.8676 84.9454 56.8676C85.1974 56.8676 85.4242 56.8284 85.6258 56.75C85.8274 56.6716 86.0066 56.5484 86.1634 56.3804L86.7262 57.0272C86.5246 57.2624 86.2698 57.4444 85.9618 57.5732C85.6594 57.6964 85.3122 57.758 84.9202 57.758ZM88.0372 57.6992V53.2136H89.0368V54.4484L88.9192 54.0872C89.0536 53.7848 89.2636 53.5552 89.5492 53.3984C89.8404 53.2416 90.2016 53.1632 90.6328 53.1632V54.1628C90.588 54.1516 90.546 54.146 90.5068 54.146C90.4676 54.1404 90.4284 54.1376 90.3892 54.1376C89.9916 54.1376 89.6752 54.2552 89.44 54.4904C89.2048 54.72 89.0872 55.0644 89.0872 55.5236V57.6992H88.0372ZM93.376 57.758C92.8832 57.758 92.5024 57.632 92.2336 57.38C91.9648 57.1224 91.8304 56.7444 91.8304 56.246V52.2224H92.8804V56.2208C92.8804 56.4336 92.9336 56.5988 93.04 56.7164C93.152 56.834 93.306 56.8928 93.502 56.8928C93.7372 56.8928 93.9332 56.8312 94.09 56.708L94.384 57.4556C94.2608 57.5564 94.1096 57.632 93.9304 57.6824C93.7512 57.7328 93.5664 57.758 93.376 57.758ZM91.0912 54.0872V53.2472H94.0816V54.0872H91.0912ZM95.2478 57.6992V53.2136H96.2978V57.6992H95.2478ZM95.777 52.4744C95.581 52.4744 95.4186 52.4128 95.2898 52.2896C95.1666 52.1664 95.105 52.018 95.105 51.8444C95.105 51.6652 95.1666 51.5168 95.2898 51.3992C95.4186 51.276 95.581 51.2144 95.777 51.2144C95.973 51.2144 96.1326 51.2732 96.2558 51.3908C96.3846 51.5028 96.449 51.6456 96.449 51.8192C96.449 52.004 96.3874 52.1608 96.2642 52.2896C96.141 52.4128 95.9786 52.4744 95.777 52.4744ZM99.7843 57.758C99.2859 57.758 98.8491 57.66 98.4739 57.464C98.1043 57.2624 97.8159 56.988 97.6087 56.6408C97.4071 56.2936 97.3063 55.8988 97.3063 55.4564C97.3063 55.0084 97.4043 54.6136 97.6003 54.272C97.8019 53.9248 98.0763 53.6532 98.4235 53.4572C98.7763 53.2612 99.1767 53.1632 99.6247 53.1632C100.062 53.1632 100.451 53.2584 100.792 53.4488C101.134 53.6392 101.403 53.908 101.599 54.2552C101.795 54.6024 101.893 55.0112 101.893 55.4816C101.893 55.5264 101.89 55.5768 101.884 55.6328C101.884 55.6888 101.882 55.742 101.876 55.7924H98.1379V55.0952H101.322L100.91 55.3136C100.916 55.056 100.862 54.8292 100.75 54.6332C100.638 54.4372 100.484 54.2832 100.288 54.1712C100.098 54.0592 99.8767 54.0032 99.6247 54.0032C99.3671 54.0032 99.1403 54.0592 98.9443 54.1712C98.7539 54.2832 98.6027 54.44 98.4907 54.6416C98.3843 54.8376 98.3311 55.07 98.3311 55.3388V55.5068C98.3311 55.7756 98.3927 56.0136 98.5159 56.2208C98.6391 56.428 98.8127 56.5876 99.0367 56.6996C99.2607 56.8116 99.5183 56.8676 99.8095 56.8676C100.062 56.8676 100.288 56.8284 100.49 56.75C100.692 56.6716 100.871 56.5484 101.028 56.3804L101.59 57.0272C101.389 57.2624 101.134 57.4444 100.826 57.5732C100.524 57.6964 100.176 57.758 99.7843 57.758ZM104.287 57.758C103.912 57.758 103.551 57.7104 103.204 57.6152C102.862 57.5144 102.59 57.394 102.389 57.254L102.792 56.456C102.994 56.5848 103.234 56.6912 103.514 56.7752C103.794 56.8592 104.074 56.9012 104.354 56.9012C104.685 56.9012 104.923 56.8564 105.068 56.7668C105.22 56.6772 105.295 56.5568 105.295 56.4056C105.295 56.2824 105.245 56.19 105.144 56.1284C105.043 56.0612 104.912 56.0108 104.749 55.9772C104.587 55.9436 104.405 55.9128 104.203 55.8848C104.007 55.8568 103.808 55.8204 103.607 55.7756C103.411 55.7252 103.232 55.6552 103.069 55.5656C102.907 55.4704 102.775 55.3444 102.674 55.1876C102.574 55.0308 102.523 54.8236 102.523 54.566C102.523 54.2804 102.604 54.034 102.767 53.8268C102.929 53.614 103.156 53.4516 103.447 53.3396C103.744 53.222 104.094 53.1632 104.497 53.1632C104.8 53.1632 105.105 53.1968 105.413 53.264C105.721 53.3312 105.976 53.4264 106.177 53.5496L105.774 54.3476C105.561 54.2188 105.346 54.132 105.127 54.0872C104.914 54.0368 104.702 54.0116 104.489 54.0116C104.17 54.0116 103.932 54.0592 103.775 54.1544C103.624 54.2496 103.548 54.37 103.548 54.5156C103.548 54.65 103.598 54.7508 103.699 54.818C103.8 54.8852 103.932 54.9384 104.094 54.9776C104.256 55.0168 104.436 55.0504 104.632 55.0784C104.833 55.1008 105.032 55.1372 105.228 55.1876C105.424 55.238 105.603 55.308 105.766 55.3976C105.934 55.4816 106.068 55.602 106.169 55.7588C106.27 55.9156 106.32 56.12 106.32 56.372C106.32 56.652 106.236 56.8956 106.068 57.1028C105.906 57.31 105.673 57.4724 105.371 57.59C105.068 57.702 104.707 57.758 104.287 57.758Z" fill="black"/>
<path d="M114.448 88.4824C113.989 88.4824 113.55 88.418 113.13 88.2892C112.71 88.1548 112.376 87.984 112.13 87.7768L112.508 86.9284C112.743 87.1132 113.034 87.2672 113.382 87.3904C113.729 87.5136 114.084 87.5752 114.448 87.5752C114.756 87.5752 115.006 87.5416 115.196 87.4744C115.386 87.4072 115.526 87.3176 115.616 87.2056C115.706 87.088 115.75 86.9564 115.75 86.8108C115.75 86.6316 115.686 86.4888 115.557 86.3824C115.428 86.2704 115.26 86.1836 115.053 86.122C114.852 86.0548 114.625 85.9932 114.373 85.9372C114.126 85.8812 113.877 85.8168 113.625 85.744C113.379 85.6656 113.152 85.5676 112.945 85.45C112.743 85.3268 112.578 85.1644 112.449 84.9628C112.32 84.7612 112.256 84.5036 112.256 84.19C112.256 83.8708 112.34 83.5796 112.508 83.3164C112.682 83.0476 112.942 82.8348 113.289 82.678C113.642 82.5156 114.087 82.4344 114.625 82.4344C114.978 82.4344 115.328 82.4792 115.675 82.5688C116.022 82.6584 116.324 82.7872 116.582 82.9552L116.238 83.8036C115.974 83.6468 115.703 83.532 115.423 83.4592C115.143 83.3808 114.874 83.3416 114.616 83.3416C114.314 83.3416 114.068 83.378 113.877 83.4508C113.692 83.5236 113.555 83.6188 113.466 83.7364C113.382 83.854 113.34 83.9884 113.34 84.1396C113.34 84.3188 113.401 84.4644 113.524 84.5764C113.653 84.6828 113.818 84.7668 114.02 84.8284C114.227 84.89 114.457 84.9516 114.709 85.0132C114.961 85.0692 115.21 85.1336 115.456 85.2064C115.708 85.2792 115.935 85.3744 116.137 85.492C116.344 85.6096 116.509 85.7692 116.632 85.9708C116.761 86.1724 116.826 86.4272 116.826 86.7352C116.826 87.0488 116.739 87.34 116.565 87.6088C116.397 87.872 116.137 88.0848 115.784 88.2472C115.431 88.404 114.986 88.4824 114.448 88.4824ZM119.866 88.4572C119.395 88.4572 118.975 88.3592 118.606 88.1632C118.242 87.9616 117.956 87.6872 117.749 87.34C117.542 86.9928 117.438 86.598 117.438 86.1556C117.438 85.7076 117.542 85.3128 117.749 84.9712C117.956 84.624 118.242 84.3524 118.606 84.1564C118.975 83.9604 119.395 83.8624 119.866 83.8624C120.302 83.8624 120.686 83.952 121.016 84.1312C121.352 84.3048 121.607 84.5624 121.781 84.904L120.974 85.3744C120.84 85.1616 120.675 85.0048 120.479 84.904C120.288 84.8032 120.081 84.7528 119.857 84.7528C119.6 84.7528 119.367 84.8088 119.16 84.9208C118.953 85.0328 118.79 85.1952 118.673 85.408C118.555 85.6152 118.496 85.8644 118.496 86.1556C118.496 86.4468 118.555 86.6988 118.673 86.9116C118.79 87.1188 118.953 87.2784 119.16 87.3904C119.367 87.5024 119.6 87.5584 119.857 87.5584C120.081 87.5584 120.288 87.508 120.479 87.4072C120.675 87.3064 120.84 87.1496 120.974 86.9368L121.781 87.4072C121.607 87.7432 121.352 88.0036 121.016 88.1884C120.686 88.3676 120.302 88.4572 119.866 88.4572ZM125.193 83.8624C125.551 83.8624 125.87 83.9324 126.15 84.0724C126.436 84.2124 126.66 84.428 126.822 84.7192C126.985 85.0048 127.066 85.3744 127.066 85.828V88.3984H126.016V85.9624C126.016 85.5648 125.921 85.268 125.73 85.072C125.545 84.876 125.285 84.778 124.949 84.778C124.703 84.778 124.484 84.8284 124.294 84.9292C124.103 85.03 123.955 85.1812 123.849 85.3828C123.748 85.5788 123.697 85.828 123.697 86.1304V88.3984H122.647V82.1656H123.697V85.1224L123.471 84.7528C123.627 84.4672 123.854 84.2488 124.151 84.0976C124.453 83.9408 124.801 83.8624 125.193 83.8624ZM130.514 88.4572C130.016 88.4572 129.579 88.3592 129.204 88.1632C128.834 87.9616 128.546 87.6872 128.339 87.34C128.137 86.9928 128.036 86.598 128.036 86.1556C128.036 85.7076 128.134 85.3128 128.33 84.9712C128.532 84.624 128.806 84.3524 129.154 84.1564C129.506 83.9604 129.907 83.8624 130.355 83.8624C130.792 83.8624 131.181 83.9576 131.522 84.148C131.864 84.3384 132.133 84.6072 132.329 84.9544C132.525 85.3016 132.623 85.7104 132.623 86.1808C132.623 86.2256 132.62 86.276 132.614 86.332C132.614 86.388 132.612 86.4412 132.606 86.4916H128.868V85.7944H132.052L131.64 86.0128C131.646 85.7552 131.592 85.5284 131.48 85.3324C131.368 85.1364 131.214 84.9824 131.018 84.8704C130.828 84.7584 130.607 84.7024 130.355 84.7024C130.097 84.7024 129.87 84.7584 129.674 84.8704C129.484 84.9824 129.333 85.1392 129.221 85.3408C129.114 85.5368 129.061 85.7692 129.061 86.038V86.206C129.061 86.4748 129.123 86.7128 129.246 86.92C129.369 87.1272 129.543 87.2868 129.767 87.3988C129.991 87.5108 130.248 87.5668 130.54 87.5668C130.792 87.5668 131.018 87.5276 131.22 87.4492C131.422 87.3708 131.601 87.2476 131.758 87.0796L132.32 87.7264C132.119 87.9616 131.864 88.1436 131.556 88.2724C131.254 88.3956 130.906 88.4572 130.514 88.4572ZM135.53 88.4572C135.099 88.4572 134.709 88.362 134.362 88.1716C134.021 87.9756 133.752 87.7068 133.556 87.3652C133.36 87.0236 133.262 86.6204 133.262 86.1556C133.262 85.6908 133.36 85.2876 133.556 84.946C133.752 84.6044 134.021 84.3384 134.362 84.148C134.709 83.9576 135.099 83.8624 135.53 83.8624C135.905 83.8624 136.241 83.9464 136.538 84.1144C136.835 84.2768 137.07 84.526 137.243 84.862C137.417 85.198 137.504 85.6292 137.504 86.1556C137.504 86.6764 137.42 87.1076 137.252 87.4492C137.084 87.7852 136.851 88.0372 136.555 88.2052C136.258 88.3732 135.916 88.4572 135.53 88.4572ZM135.656 87.5584C135.908 87.5584 136.132 87.5024 136.328 87.3904C136.529 87.2784 136.689 87.116 136.807 86.9032C136.93 86.6904 136.991 86.4412 136.991 86.1556C136.991 85.8644 136.93 85.6152 136.807 85.408C136.689 85.1952 136.529 85.0328 136.328 84.9208C136.132 84.8088 135.908 84.7528 135.656 84.7528C135.404 84.7528 135.177 84.8088 134.975 84.9208C134.779 85.0328 134.62 85.1952 134.497 85.408C134.379 85.6152 134.32 85.8644 134.32 86.1556C134.32 86.4412 134.379 86.6904 134.497 86.9032C134.62 87.116 134.779 87.2784 134.975 87.3904C135.177 87.5024 135.404 87.5584 135.656 87.5584ZM137.017 88.3984V87.34L137.059 86.1472L136.975 84.9544V82.1656H138.016V88.3984H137.017ZM141.297 88.4572C140.916 88.4572 140.58 88.3872 140.289 88.2472C139.997 88.1016 139.771 87.8832 139.608 87.592C139.446 87.2952 139.365 86.9228 139.365 86.4748V83.9128H140.415V86.332C140.415 86.7352 140.504 87.0376 140.683 87.2392C140.868 87.4352 141.129 87.5332 141.465 87.5332C141.711 87.5332 141.924 87.4828 142.103 87.382C142.288 87.2812 142.431 87.13 142.531 86.9284C142.638 86.7268 142.691 86.4776 142.691 86.1808V83.9128H143.741V88.3984H142.741V87.1888L142.918 87.5584C142.767 87.8496 142.545 88.0736 142.254 88.2304C141.963 88.3816 141.644 88.4572 141.297 88.4572ZM145.116 88.3984V82.1656H146.166V88.3984H145.116ZM149.652 88.4572C149.154 88.4572 148.717 88.3592 148.342 88.1632C147.972 87.9616 147.684 87.6872 147.477 87.34C147.275 86.9928 147.174 86.598 147.174 86.1556C147.174 85.7076 147.272 85.3128 147.468 84.9712C147.67 84.624 147.944 84.3524 148.291 84.1564C148.644 83.9604 149.045 83.8624 149.493 83.8624C149.929 83.8624 150.319 83.9576 150.66 84.148C151.002 84.3384 151.271 84.6072 151.467 84.9544C151.663 85.3016 151.761 85.7104 151.761 86.1808C151.761 86.2256 151.758 86.276 151.752 86.332C151.752 86.388 151.749 86.4412 151.744 86.4916H148.006V85.7944H151.189L150.778 86.0128C150.783 85.7552 150.73 85.5284 150.618 85.3324C150.506 85.1364 150.352 84.9824 150.156 84.8704C149.966 84.7584 149.745 84.7024 149.493 84.7024C149.235 84.7024 149.008 84.7584 148.812 84.8704C148.622 84.9824 148.471 85.1392 148.359 85.3408C148.252 85.5368 148.199 85.7692 148.199 86.038V86.206C148.199 86.4748 148.261 86.7128 148.384 86.92C148.507 87.1272 148.681 87.2868 148.905 87.3988C149.129 87.5108 149.386 87.5668 149.677 87.5668C149.929 87.5668 150.156 87.5276 150.358 87.4492C150.559 87.3708 150.739 87.2476 150.895 87.0796L151.458 87.7264C151.257 87.9616 151.002 88.1436 150.694 88.2724C150.391 88.3956 150.044 88.4572 149.652 88.4572ZM156.93 88.3984L154.36 82.5184H155.544L157.838 87.8356H157.157L159.476 82.5184H160.568L158.006 88.3984H156.93ZM161.128 88.3984V83.9128H162.178V88.3984H161.128ZM161.657 83.1736C161.461 83.1736 161.299 83.112 161.17 82.9888C161.047 82.8656 160.985 82.7172 160.985 82.5436C160.985 82.3644 161.047 82.216 161.17 82.0984C161.299 81.9752 161.461 81.9136 161.657 81.9136C161.853 81.9136 162.013 81.9724 162.136 82.09C162.265 82.202 162.329 82.3448 162.329 82.5184C162.329 82.7032 162.268 82.86 162.145 82.9888C162.021 83.112 161.859 83.1736 161.657 83.1736ZM164.942 88.4572C164.567 88.4572 164.206 88.4096 163.859 88.3144C163.517 88.2136 163.246 88.0932 163.044 87.9532L163.447 87.1552C163.649 87.284 163.89 87.3904 164.17 87.4744C164.45 87.5584 164.73 87.6004 165.01 87.6004C165.34 87.6004 165.578 87.5556 165.724 87.466C165.875 87.3764 165.95 87.256 165.95 87.1048C165.95 86.9816 165.9 86.8892 165.799 86.8276C165.698 86.7604 165.567 86.71 165.404 86.6764C165.242 86.6428 165.06 86.612 164.858 86.584C164.662 86.556 164.464 86.5196 164.262 86.4748C164.066 86.4244 163.887 86.3544 163.724 86.2648C163.562 86.1696 163.43 86.0436 163.33 85.8868C163.229 85.73 163.178 85.5228 163.178 85.2652C163.178 84.9796 163.26 84.7332 163.422 84.526C163.584 84.3132 163.811 84.1508 164.102 84.0388C164.399 83.9212 164.749 83.8624 165.152 83.8624C165.455 83.8624 165.76 83.896 166.068 83.9632C166.376 84.0304 166.631 84.1256 166.832 84.2488L166.429 85.0468C166.216 84.918 166.001 84.8312 165.782 84.7864C165.57 84.736 165.357 84.7108 165.144 84.7108C164.825 84.7108 164.587 84.7584 164.43 84.8536C164.279 84.9488 164.203 85.0692 164.203 85.2148C164.203 85.3492 164.254 85.45 164.354 85.5172C164.455 85.5844 164.587 85.6376 164.749 85.6768C164.912 85.716 165.091 85.7496 165.287 85.7776C165.488 85.8 165.687 85.8364 165.883 85.8868C166.079 85.9372 166.258 86.0072 166.421 86.0968C166.589 86.1808 166.723 86.3012 166.824 86.458C166.925 86.6148 166.975 86.8192 166.975 87.0712C166.975 87.3512 166.891 87.5948 166.723 87.802C166.561 88.0092 166.328 88.1716 166.026 88.2892C165.724 88.4012 165.362 88.4572 164.942 88.4572ZM167.879 88.3984V83.9128H168.929V88.3984H167.879ZM168.409 83.1736C168.213 83.1736 168.05 83.112 167.921 82.9888C167.798 82.8656 167.737 82.7172 167.737 82.5436C167.737 82.3644 167.798 82.216 167.921 82.0984C168.05 81.9752 168.213 81.9136 168.409 81.9136C168.605 81.9136 168.764 81.9724 168.887 82.09C169.016 82.202 169.081 82.3448 169.081 82.5184C169.081 82.7032 169.019 82.86 168.896 82.9888C168.773 83.112 168.61 83.1736 168.409 83.1736ZM171.996 88.4572C171.503 88.4572 171.122 88.3312 170.854 88.0792C170.585 87.8216 170.45 87.4436 170.45 86.9452V82.9216H171.5V86.92C171.5 87.1328 171.554 87.298 171.66 87.4156C171.772 87.5332 171.926 87.592 172.122 87.592C172.357 87.592 172.553 87.5304 172.71 87.4072L173.004 88.1548C172.881 88.2556 172.73 88.3312 172.55 88.3816C172.371 88.432 172.186 88.4572 171.996 88.4572ZM169.711 84.7864V83.9464H172.702V84.7864H169.711ZM175.254 88.4572C174.879 88.4572 174.517 88.4096 174.17 88.3144C173.829 88.2136 173.557 88.0932 173.355 87.9532L173.759 87.1552C173.96 87.284 174.201 87.3904 174.481 87.4744C174.761 87.5584 175.041 87.6004 175.321 87.6004C175.651 87.6004 175.889 87.5556 176.035 87.466C176.186 87.3764 176.262 87.256 176.262 87.1048C176.262 86.9816 176.211 86.8892 176.111 86.8276C176.01 86.7604 175.878 86.71 175.716 86.6764C175.553 86.6428 175.371 86.612 175.17 86.584C174.974 86.556 174.775 86.5196 174.573 86.4748C174.377 86.4244 174.198 86.3544 174.036 86.2648C173.873 86.1696 173.742 86.0436 173.641 85.8868C173.54 85.73 173.49 85.5228 173.49 85.2652C173.49 84.9796 173.571 84.7332 173.733 84.526C173.896 84.3132 174.123 84.1508 174.414 84.0388C174.711 83.9212 175.061 83.8624 175.464 83.8624C175.766 83.8624 176.071 83.896 176.379 83.9632C176.687 84.0304 176.942 84.1256 177.144 84.2488L176.741 85.0468C176.528 84.918 176.312 84.8312 176.094 84.7864C175.881 84.736 175.668 84.7108 175.455 84.7108C175.136 84.7108 174.898 84.7584 174.741 84.8536C174.59 84.9488 174.515 85.0692 174.515 85.2148C174.515 85.3492 174.565 85.45 174.666 85.5172C174.767 85.5844 174.898 85.6376 175.061 85.6768C175.223 85.716 175.402 85.7496 175.598 85.7776C175.8 85.8 175.999 85.8364 176.195 85.8868C176.391 85.9372 176.57 86.0072 176.732 86.0968C176.9 86.1808 177.035 86.3012 177.135 86.458C177.236 86.6148 177.287 86.8192 177.287 87.0712C177.287 87.3512 177.203 87.5948 177.035 87.802C176.872 88.0092 176.64 88.1716 176.337 88.2892C176.035 88.4012 175.674 88.4572 175.254 88.4572Z" fill="black"/>
<path d="M183.32 91.3984V89.9427L187.972 85.5254C188.362 85.1573 188.652 84.8338 188.842 84.5549C189.031 84.2761 189.154 84.0195 189.21 83.7853C189.277 83.5399 189.31 83.3112 189.31 83.0992C189.31 82.5638 189.126 82.1511 188.758 81.861C188.39 81.5599 187.849 81.4093 187.135 81.4093C186.566 81.4093 186.047 81.5097 185.579 81.7105C185.122 81.9112 184.726 82.218 184.391 82.6307L182.868 81.4595C183.326 80.846 183.939 80.3719 184.709 80.0372C185.49 79.6914 186.36 79.5185 187.319 79.5185C188.167 79.5185 188.903 79.658 189.528 79.9368C190.163 80.2046 190.649 80.5894 190.983 81.0914C191.329 81.5933 191.502 82.1901 191.502 82.8817C191.502 83.261 191.452 83.6402 191.351 84.0195C191.251 84.3876 191.061 84.778 190.783 85.1908C190.504 85.6035 190.097 86.0664 189.561 86.5795L185.562 90.3778L185.11 89.5579H191.954V91.3984H183.32Z" fill="#FF6901"/>
<path d="M45.5501 122.966C44.7247 122.966 43.9159 122.849 43.124 122.615C42.3431 122.369 41.685 122.035 41.1495 121.611L42.0866 119.921C42.5104 120.267 43.0236 120.546 43.6259 120.757C44.2283 120.969 44.8585 121.075 45.5167 121.075C46.2975 121.075 46.9054 120.919 47.3405 120.607C47.7755 120.283 47.993 119.848 47.993 119.302C47.993 118.766 47.7923 118.342 47.3907 118.03C46.9891 117.718 46.3421 117.562 45.4497 117.562H44.3789V116.072L47.7253 112.09L48.0098 112.91H41.7184V111.086H49.6997V112.542L46.3533 116.524L45.2155 115.855H45.868C47.307 115.855 48.3835 116.178 49.0974 116.825C49.8224 117.461 50.185 118.281 50.185 119.285C50.185 119.943 50.0176 120.551 49.683 121.109C49.3484 121.667 48.8352 122.118 48.1436 122.464C47.4632 122.799 46.5987 122.966 45.5501 122.966Z" fill="#9E23F6"/>
<path d="M56.8208 119.799V113.919H57.7196L60.2901 118.211H59.8197L62.348 113.919H63.2468L63.2552 119.799H62.2221L62.2137 115.54H62.432L60.2817 119.127H59.7944L57.6104 115.54H57.8624V119.799H56.8208ZM66.8511 119.858C66.3527 119.858 65.9159 119.76 65.5407 119.564C65.1711 119.362 64.8827 119.088 64.6755 118.74C64.4739 118.393 64.3731 117.998 64.3731 117.556C64.3731 117.108 64.4711 116.713 64.6671 116.372C64.8687 116.024 65.1431 115.753 65.4903 115.557C65.8431 115.361 66.2435 115.263 66.6915 115.263C67.1283 115.263 67.5175 115.358 67.8591 115.548C68.2007 115.739 68.4695 116.008 68.6655 116.355C68.8615 116.702 68.9595 117.111 68.9595 117.581C68.9595 117.626 68.9567 117.676 68.9511 117.732C68.9511 117.788 68.9483 117.842 68.9427 117.892H65.2047V117.195H68.3883L67.9767 117.413C67.9823 117.156 67.9291 116.929 67.8171 116.733C67.7051 116.537 67.5511 116.383 67.3551 116.271C67.1647 116.159 66.9435 116.103 66.6915 116.103C66.4339 116.103 66.2071 116.159 66.0111 116.271C65.8207 116.383 65.6695 116.54 65.5575 116.741C65.4511 116.937 65.3979 117.17 65.3979 117.438V117.606C65.3979 117.875 65.4595 118.113 65.5827 118.32C65.7059 118.528 65.8795 118.687 66.1035 118.799C66.3275 118.911 66.5851 118.967 66.8763 118.967C67.1283 118.967 67.3551 118.928 67.5567 118.85C67.7583 118.771 67.9375 118.648 68.0943 118.48L68.6571 119.127C68.4555 119.362 68.2007 119.544 67.8927 119.673C67.5903 119.796 67.2431 119.858 66.8511 119.858ZM72.0765 119.858C71.5781 119.858 71.1413 119.76 70.7661 119.564C70.3965 119.362 70.1081 119.088 69.9009 118.74C69.6993 118.393 69.5985 117.998 69.5985 117.556C69.5985 117.108 69.6965 116.713 69.8925 116.372C70.0941 116.024 70.3685 115.753 70.7157 115.557C71.0685 115.361 71.4689 115.263 71.9169 115.263C72.3537 115.263 72.7429 115.358 73.0845 115.548C73.4261 115.739 73.6949 116.008 73.8909 116.355C74.0869 116.702 74.1849 117.111 74.1849 117.581C74.1849 117.626 74.1821 117.676 74.1765 117.732C74.1765 117.788 74.1737 117.842 74.1681 117.892H70.4301V117.195H73.6137L73.2021 117.413C73.2077 117.156 73.1545 116.929 73.0425 116.733C72.9305 116.537 72.7765 116.383 72.5805 116.271C72.3901 116.159 72.1689 116.103 71.9169 116.103C71.6593 116.103 71.4325 116.159 71.2365 116.271C71.0461 116.383 70.8949 116.54 70.7829 116.741C70.6765 116.937 70.6233 117.17 70.6233 117.438V117.606C70.6233 117.875 70.6849 118.113 70.8081 118.32C70.9313 118.528 71.1049 118.687 71.3289 118.799C71.5529 118.911 71.8105 118.967 72.1017 118.967C72.3537 118.967 72.5805 118.928 72.7821 118.85C72.9837 118.771 73.1629 118.648 73.3197 118.48L73.8825 119.127C73.6809 119.362 73.4261 119.544 73.1181 119.673C72.8157 119.796 72.4685 119.858 72.0765 119.858ZM76.8819 119.858C76.3891 119.858 76.0083 119.732 75.7395 119.48C75.4707 119.222 75.3363 118.844 75.3363 118.346V114.322H76.3863V118.32C76.3863 118.533 76.4395 118.698 76.5459 118.816C76.6579 118.934 76.8119 118.992 77.0079 118.992C77.2431 118.992 77.4391 118.931 77.5959 118.808L77.8899 119.555C77.7667 119.656 77.6155 119.732 77.4363 119.782C77.2571 119.832 77.0723 119.858 76.8819 119.858ZM74.5971 116.187V115.347H77.5875V116.187H74.5971ZM83.9311 119.883C83.4719 119.883 83.0491 119.807 82.6627 119.656C82.2763 119.505 81.9403 119.295 81.6547 119.026C81.3691 118.752 81.1479 118.432 80.9911 118.068C80.8343 117.699 80.7559 117.296 80.7559 116.859C80.7559 116.422 80.8343 116.022 80.9911 115.658C81.1479 115.288 81.3691 114.969 81.6547 114.7C81.9403 114.426 82.2763 114.213 82.6627 114.062C83.0491 113.91 83.4691 113.835 83.9227 113.835C84.3819 113.835 84.8019 113.91 85.1827 114.062C85.5691 114.213 85.9051 114.426 86.1907 114.7C86.4763 114.969 86.6975 115.288 86.8543 115.658C87.0111 116.022 87.0895 116.422 87.0895 116.859C87.0895 117.296 87.0111 117.699 86.8543 118.068C86.6975 118.438 86.4763 118.757 86.1907 119.026C85.9051 119.295 85.5691 119.505 85.1827 119.656C84.8019 119.807 84.3847 119.883 83.9311 119.883ZM83.9227 118.925C84.2195 118.925 84.4939 118.875 84.7459 118.774C84.9979 118.673 85.2163 118.53 85.4011 118.346C85.5859 118.155 85.7287 117.937 85.8295 117.69C85.9359 117.438 85.9891 117.161 85.9891 116.859C85.9891 116.556 85.9359 116.282 85.8295 116.036C85.7287 115.784 85.5859 115.565 85.4011 115.38C85.2163 115.19 84.9979 115.044 84.7459 114.944C84.4939 114.843 84.2195 114.792 83.9227 114.792C83.6259 114.792 83.3515 114.843 83.0995 114.944C82.8531 115.044 82.6347 115.19 82.4443 115.38C82.2595 115.565 82.1139 115.784 82.0075 116.036C81.9067 116.282 81.8563 116.556 81.8563 116.859C81.8563 117.156 81.9067 117.43 82.0075 117.682C82.1139 117.934 82.2595 118.155 82.4443 118.346C82.6291 118.53 82.8475 118.673 83.0995 118.774C83.3515 118.875 83.6259 118.925 83.9227 118.925ZM90.0446 119.858C89.6638 119.858 89.3278 119.788 89.0366 119.648C88.7454 119.502 88.5186 119.284 88.3562 118.992C88.1938 118.696 88.1126 118.323 88.1126 117.875V115.313H89.1626V117.732C89.1626 118.136 89.2522 118.438 89.4314 118.64C89.6162 118.836 89.8766 118.934 90.2126 118.934C90.459 118.934 90.6718 118.883 90.851 118.782C91.0358 118.682 91.1786 118.53 91.2794 118.329C91.3858 118.127 91.439 117.878 91.439 117.581V115.313H92.489V119.799H91.4894V118.589L91.6658 118.959C91.5146 119.25 91.2934 119.474 91.0022 119.631C90.711 119.782 90.3918 119.858 90.0446 119.858ZM93.8638 119.799V115.313H94.8634V116.548L94.7458 116.187C94.8802 115.884 95.0902 115.655 95.3758 115.498C95.667 115.341 96.0282 115.263 96.4594 115.263V116.262C96.4146 116.251 96.3726 116.246 96.3334 116.246C96.2942 116.24 96.255 116.237 96.2158 116.237C95.8182 116.237 95.5018 116.355 95.2666 116.59C95.0314 116.82 94.9138 117.164 94.9138 117.623V119.799H93.8638ZM98.9818 119.799L101.628 113.919H102.703L105.357 119.799H104.215L101.939 114.498H102.375L100.107 119.799H98.9818ZM100.2 118.438L100.494 117.581H103.669L103.963 118.438H100.2ZM107.996 121.487C107.582 121.487 107.176 121.431 106.778 121.319C106.386 121.213 106.064 121.056 105.812 120.849L106.283 120.059C106.479 120.222 106.725 120.35 107.022 120.446C107.324 120.546 107.629 120.597 107.937 120.597C108.43 120.597 108.791 120.482 109.021 120.252C109.251 120.028 109.365 119.69 109.365 119.236V118.438L109.449 117.422L109.416 116.405V115.313H110.415V119.118C110.415 119.93 110.208 120.527 109.794 120.908C109.379 121.294 108.78 121.487 107.996 121.487ZM107.862 119.597C107.436 119.597 107.05 119.508 106.703 119.328C106.361 119.144 106.089 118.889 105.888 118.564C105.692 118.239 105.594 117.858 105.594 117.422C105.594 116.99 105.692 116.612 105.888 116.288C106.089 115.963 106.361 115.711 106.703 115.532C107.05 115.352 107.436 115.263 107.862 115.263C108.243 115.263 108.584 115.338 108.887 115.49C109.189 115.641 109.43 115.876 109.609 116.195C109.794 116.514 109.886 116.923 109.886 117.422C109.886 117.92 109.794 118.332 109.609 118.656C109.43 118.976 109.189 119.214 108.887 119.37C108.584 119.522 108.243 119.597 107.862 119.597ZM108.021 118.707C108.285 118.707 108.52 118.654 108.727 118.547C108.934 118.435 109.094 118.284 109.206 118.094C109.323 117.898 109.382 117.674 109.382 117.422C109.382 117.17 109.323 116.948 109.206 116.758C109.094 116.562 108.934 116.414 108.727 116.313C108.52 116.206 108.285 116.153 108.021 116.153C107.758 116.153 107.52 116.206 107.307 116.313C107.1 116.414 106.938 116.562 106.82 116.758C106.708 116.948 106.652 117.17 106.652 117.422C106.652 117.674 106.708 117.898 106.82 118.094C106.938 118.284 107.1 118.435 107.307 118.547C107.52 118.654 107.758 118.707 108.021 118.707ZM113.904 119.858C113.406 119.858 112.969 119.76 112.594 119.564C112.224 119.362 111.936 119.088 111.729 118.74C111.527 118.393 111.426 117.998 111.426 117.556C111.426 117.108 111.524 116.713 111.72 116.372C111.922 116.024 112.196 115.753 112.543 115.557C112.896 115.361 113.297 115.263 113.745 115.263C114.181 115.263 114.571 115.358 114.912 115.548C115.254 115.739 115.523 116.008 115.719 116.355C115.915 116.702 116.013 117.111 116.013 117.581C116.013 117.626 116.01 117.676 116.004 117.732C116.004 117.788 116.001 117.842 115.996 117.892H112.258V117.195H115.441L115.03 117.413C115.035 117.156 114.982 116.929 114.87 116.733C114.758 116.537 114.604 116.383 114.408 116.271C114.218 116.159 113.997 116.103 113.745 116.103C113.487 116.103 113.26 116.159 113.064 116.271C112.874 116.383 112.723 116.54 112.611 116.741C112.504 116.937 112.451 117.17 112.451 117.438V117.606C112.451 117.875 112.513 118.113 112.636 118.32C112.759 118.528 112.933 118.687 113.157 118.799C113.381 118.911 113.638 118.967 113.929 118.967C114.181 118.967 114.408 118.928 114.61 118.85C114.811 118.771 114.991 118.648 115.147 118.48L115.71 119.127C115.509 119.362 115.254 119.544 114.946 119.673C114.643 119.796 114.296 119.858 113.904 119.858ZM119.566 115.263C119.925 115.263 120.244 115.333 120.524 115.473C120.81 115.613 121.034 115.828 121.196 116.12C121.358 116.405 121.44 116.775 121.44 117.228V119.799H120.39V117.363C120.39 116.965 120.294 116.668 120.104 116.472C119.919 116.276 119.659 116.178 119.323 116.178C119.076 116.178 118.858 116.229 118.668 116.33C118.477 116.43 118.329 116.582 118.222 116.783C118.122 116.979 118.071 117.228 118.071 117.531V119.799H117.021V115.313H118.021V116.523L117.844 116.153C118.001 115.868 118.228 115.649 118.525 115.498C118.827 115.341 119.174 115.263 119.566 115.263ZM124.46 119.858C123.967 119.858 123.586 119.732 123.318 119.48C123.049 119.222 122.914 118.844 122.914 118.346V114.322H123.964V118.32C123.964 118.533 124.018 118.698 124.124 118.816C124.236 118.934 124.39 118.992 124.586 118.992C124.821 118.992 125.017 118.931 125.174 118.808L125.468 119.555C125.345 119.656 125.194 119.732 125.014 119.782C124.835 119.832 124.65 119.858 124.46 119.858ZM122.175 116.187V115.347H125.166V116.187H122.175ZM127.718 119.858C127.343 119.858 126.981 119.81 126.634 119.715C126.293 119.614 126.021 119.494 125.819 119.354L126.223 118.556C126.424 118.684 126.665 118.791 126.945 118.875C127.225 118.959 127.505 119.001 127.785 119.001C128.115 119.001 128.353 118.956 128.499 118.866C128.65 118.777 128.726 118.656 128.726 118.505C128.726 118.382 128.675 118.29 128.575 118.228C128.474 118.161 128.342 118.11 128.18 118.077C128.017 118.043 127.835 118.012 127.634 117.984C127.438 117.956 127.239 117.92 127.037 117.875C126.841 117.825 126.662 117.755 126.5 117.665C126.337 117.57 126.206 117.444 126.105 117.287C126.004 117.13 125.954 116.923 125.954 116.666C125.954 116.38 126.035 116.134 126.197 115.926C126.36 115.714 126.587 115.551 126.878 115.439C127.175 115.322 127.525 115.263 127.928 115.263C128.23 115.263 128.535 115.296 128.843 115.364C129.151 115.431 129.406 115.526 129.608 115.649L129.205 116.447C128.992 116.318 128.776 116.232 128.558 116.187C128.345 116.136 128.132 116.111 127.919 116.111C127.6 116.111 127.362 116.159 127.205 116.254C127.054 116.349 126.979 116.47 126.979 116.615C126.979 116.75 127.029 116.85 127.13 116.918C127.231 116.985 127.362 117.038 127.525 117.077C127.687 117.116 127.866 117.15 128.062 117.178C128.264 117.2 128.463 117.237 128.659 117.287C128.855 117.338 129.034 117.408 129.196 117.497C129.364 117.581 129.499 117.702 129.599 117.858C129.7 118.015 129.751 118.22 129.751 118.472C129.751 118.752 129.667 118.995 129.499 119.202C129.336 119.41 129.104 119.572 128.801 119.69C128.499 119.802 128.138 119.858 127.718 119.858Z" fill="black"/>
<path d="M66.5112 150.084C66.0632 150.084 65.646 150.011 65.2596 149.866C64.8788 149.714 64.5456 149.504 64.26 149.236C63.98 148.961 63.7616 148.639 63.6048 148.27C63.448 147.9 63.3696 147.497 63.3696 147.06C63.3696 146.623 63.448 146.22 63.6048 145.85C63.7616 145.481 63.9828 145.162 64.2684 144.893C64.554 144.618 64.8872 144.408 65.268 144.263C65.6488 144.112 66.066 144.036 66.5196 144.036C67.0012 144.036 67.4408 144.12 67.8384 144.288C68.236 144.45 68.572 144.694 68.8464 145.019L68.1408 145.682C67.928 145.453 67.69 145.282 67.4268 145.17C67.1636 145.052 66.878 144.994 66.57 144.994C66.262 144.994 65.9792 145.044 65.7216 145.145C65.4696 145.246 65.2484 145.388 65.058 145.573C64.8732 145.758 64.7276 145.976 64.6212 146.228C64.5204 146.48 64.47 146.758 64.47 147.06C64.47 147.362 64.5204 147.64 64.6212 147.892C64.7276 148.144 64.8732 148.362 65.058 148.547C65.2484 148.732 65.4696 148.874 65.7216 148.975C65.9792 149.076 66.262 149.126 66.57 149.126C66.878 149.126 67.1636 149.07 67.4268 148.958C67.69 148.841 67.928 148.664 68.1408 148.429L68.8464 149.101C68.572 149.42 68.236 149.664 67.8384 149.832C67.4408 150 66.9984 150.084 66.5112 150.084ZM71.6357 150.059C71.1765 150.059 70.7677 149.961 70.4093 149.765C70.0509 149.563 69.7681 149.289 69.5609 148.942C69.3537 148.594 69.2501 148.2 69.2501 147.757C69.2501 147.309 69.3537 146.914 69.5609 146.573C69.7681 146.226 70.0509 145.954 70.4093 145.758C70.7677 145.562 71.1765 145.464 71.6357 145.464C72.1005 145.464 72.5121 145.562 72.8705 145.758C73.2345 145.954 73.5173 146.223 73.7189 146.564C73.9261 146.906 74.0297 147.304 74.0297 147.757C74.0297 148.2 73.9261 148.594 73.7189 148.942C73.5173 149.289 73.2345 149.563 72.8705 149.765C72.5121 149.961 72.1005 150.059 71.6357 150.059ZM71.6357 149.16C71.8933 149.16 72.1229 149.104 72.3245 148.992C72.5261 148.88 72.6829 148.718 72.7949 148.505C72.9125 148.292 72.9713 148.043 72.9713 147.757C72.9713 147.466 72.9125 147.217 72.7949 147.01C72.6829 146.797 72.5261 146.634 72.3245 146.522C72.1229 146.41 71.8961 146.354 71.6441 146.354C71.3865 146.354 71.1569 146.41 70.9553 146.522C70.7593 146.634 70.6025 146.797 70.4849 147.01C70.3673 147.217 70.3085 147.466 70.3085 147.757C70.3085 148.043 70.3673 148.292 70.4849 148.505C70.6025 148.718 70.7593 148.88 70.9553 148.992C71.1569 149.104 71.3837 149.16 71.6357 149.16ZM80.6953 145.464C81.0537 145.464 81.3701 145.534 81.6445 145.674C81.9245 145.814 82.1429 146.03 82.2997 146.321C82.4565 146.606 82.5349 146.976 82.5349 147.43V150H81.4849V147.564C81.4849 147.166 81.3981 146.87 81.2245 146.674C81.0509 146.478 80.8017 146.38 80.4769 146.38C80.2473 146.38 80.0429 146.43 79.8637 146.531C79.6901 146.632 79.5529 146.78 79.4521 146.976C79.3569 147.172 79.3093 147.421 79.3093 147.724V150H78.2593V147.564C78.2593 147.166 78.1725 146.87 77.9989 146.674C77.8253 146.478 77.5761 146.38 77.2513 146.38C77.0217 146.38 76.8173 146.43 76.6381 146.531C76.4645 146.632 76.3273 146.78 76.2265 146.976C76.1313 147.172 76.0837 147.421 76.0837 147.724V150H75.0337V145.514H76.0333V146.707L75.8569 146.354C76.0081 146.063 76.2265 145.842 76.5121 145.691C76.8033 145.54 77.1337 145.464 77.5033 145.464C77.9233 145.464 78.2873 145.568 78.5953 145.775C78.9089 145.982 79.1161 146.296 79.2169 146.716L78.8053 146.573C78.9509 146.237 79.1917 145.968 79.5277 145.766C79.8637 145.565 80.2529 145.464 80.6953 145.464ZM86.3631 150.059C85.9991 150.059 85.6659 149.975 85.3635 149.807C85.0667 149.639 84.8287 149.387 84.6495 149.051C84.4759 148.709 84.3891 148.278 84.3891 147.757C84.3891 147.231 84.4731 146.8 84.6411 146.464C84.8147 146.128 85.0499 145.878 85.3467 145.716C85.6435 145.548 85.9823 145.464 86.3631 145.464C86.8055 145.464 87.1947 145.559 87.5307 145.75C87.8723 145.94 88.1411 146.206 88.3371 146.548C88.5387 146.889 88.6395 147.292 88.6395 147.757C88.6395 148.222 88.5387 148.628 88.3371 148.975C88.1411 149.317 87.8723 149.583 87.5307 149.773C87.1947 149.964 86.8055 150.059 86.3631 150.059ZM83.8767 151.63V145.514H84.8763V146.573L84.8427 147.766L84.9267 148.958V151.63H83.8767ZM86.2455 149.16C86.4975 149.16 86.7215 149.104 86.9175 148.992C87.1191 148.88 87.2787 148.718 87.3963 148.505C87.5139 148.292 87.5727 148.043 87.5727 147.757C87.5727 147.466 87.5139 147.217 87.3963 147.01C87.2787 146.797 87.1191 146.634 86.9175 146.522C86.7215 146.41 86.4975 146.354 86.2455 146.354C85.9935 146.354 85.7667 146.41 85.5651 146.522C85.3635 146.634 85.2039 146.797 85.0863 147.01C84.9687 147.217 84.9099 147.466 84.9099 147.757C84.9099 148.043 84.9687 148.292 85.0863 148.505C85.2039 148.718 85.3635 148.88 85.5651 148.992C85.7667 149.104 85.9935 149.16 86.2455 149.16ZM89.6353 150V143.767H90.6853V150H89.6353ZM94.1718 150.059C93.6734 150.059 93.2366 149.961 92.8614 149.765C92.4918 149.563 92.2034 149.289 91.9962 148.942C91.7946 148.594 91.6938 148.2 91.6938 147.757C91.6938 147.309 91.7918 146.914 91.9878 146.573C92.1894 146.226 92.4638 145.954 92.811 145.758C93.1638 145.562 93.5642 145.464 94.0122 145.464C94.449 145.464 94.8382 145.559 95.1798 145.75C95.5214 145.94 95.7902 146.209 95.9862 146.556C96.1822 146.903 96.2802 147.312 96.2802 147.782C96.2802 147.827 96.2774 147.878 96.2718 147.934C96.2718 147.99 96.269 148.043 96.2634 148.093H92.5254V147.396H95.709L95.2974 147.614C95.303 147.357 95.2498 147.13 95.1378 146.934C95.0258 146.738 94.8718 146.584 94.6758 146.472C94.4854 146.36 94.2642 146.304 94.0122 146.304C93.7546 146.304 93.5278 146.36 93.3318 146.472C93.1414 146.584 92.9902 146.741 92.8782 146.942C92.7718 147.138 92.7186 147.371 92.7186 147.64V147.808C92.7186 148.076 92.7802 148.314 92.9034 148.522C93.0266 148.729 93.2002 148.888 93.4242 149C93.6482 149.112 93.9058 149.168 94.197 149.168C94.449 149.168 94.6758 149.129 94.8774 149.051C95.079 148.972 95.2582 148.849 95.415 148.681L95.9778 149.328C95.7762 149.563 95.5214 149.745 95.2134 149.874C94.911 149.997 94.5638 150.059 94.1718 150.059ZM98.9772 150.059C98.4844 150.059 98.1036 149.933 97.8348 149.681C97.566 149.423 97.4316 149.045 97.4316 148.547V144.523H98.4816V148.522C98.4816 148.734 98.5348 148.9 98.6412 149.017C98.7532 149.135 98.9072 149.194 99.1032 149.194C99.3384 149.194 99.5344 149.132 99.6912 149.009L99.9852 149.756C99.862 149.857 99.7108 149.933 99.5316 149.983C99.3524 150.034 99.1676 150.059 98.9772 150.059ZM96.6924 146.388V145.548H99.6828V146.388H96.6924ZM102.81 150.059C102.311 150.059 101.874 149.961 101.499 149.765C101.13 149.563 100.841 149.289 100.634 148.942C100.432 148.594 100.332 148.2 100.332 147.757C100.332 147.309 100.43 146.914 100.626 146.573C100.827 146.226 101.102 145.954 101.449 145.758C101.802 145.562 102.202 145.464 102.65 145.464C103.087 145.464 103.476 145.559 103.818 145.75C104.159 145.94 104.428 146.209 104.624 146.556C104.82 146.903 104.918 147.312 104.918 147.782C104.918 147.827 104.915 147.878 104.91 147.934C104.91 147.99 104.907 148.043 104.901 148.093H101.163V147.396H104.347L103.935 147.614C103.941 147.357 103.888 147.13 103.776 146.934C103.664 146.738 103.51 146.584 103.314 146.472C103.123 146.36 102.902 146.304 102.65 146.304C102.392 146.304 102.166 146.36 101.97 146.472C101.779 146.584 101.628 146.741 101.516 146.942C101.41 147.138 101.356 147.371 101.356 147.64V147.808C101.356 148.076 101.418 148.314 101.541 148.522C101.664 148.729 101.838 148.888 102.062 149C102.286 149.112 102.544 149.168 102.835 149.168C103.087 149.168 103.314 149.129 103.515 149.051C103.717 148.972 103.896 148.849 104.053 148.681L104.616 149.328C104.414 149.563 104.159 149.745 103.851 149.874C103.549 149.997 103.202 150.059 102.81 150.059ZM108.349 150V144.12H110.768C111.289 144.12 111.734 144.204 112.104 144.372C112.479 144.54 112.767 144.781 112.969 145.094C113.171 145.408 113.271 145.78 113.271 146.212C113.271 146.643 113.171 147.015 112.969 147.329C112.767 147.642 112.479 147.883 112.104 148.051C111.734 148.219 111.289 148.303 110.768 148.303H108.954L109.441 147.791V150H108.349ZM109.441 147.908L108.954 147.379H110.718C111.199 147.379 111.561 147.278 111.801 147.077C112.048 146.87 112.171 146.581 112.171 146.212C112.171 145.836 112.048 145.548 111.801 145.346C111.561 145.145 111.199 145.044 110.718 145.044H108.954L109.441 144.506V147.908ZM116.984 150V149.093L116.925 148.9V147.312C116.925 147.004 116.832 146.766 116.648 146.598C116.463 146.424 116.183 146.338 115.808 146.338C115.556 146.338 115.306 146.377 115.06 146.455C114.819 146.534 114.615 146.643 114.447 146.783L114.035 146.018C114.276 145.834 114.562 145.696 114.892 145.607C115.228 145.512 115.575 145.464 115.934 145.464C116.583 145.464 117.084 145.621 117.437 145.934C117.796 146.242 117.975 146.721 117.975 147.371V150H116.984ZM115.572 150.059C115.236 150.059 114.942 150.003 114.69 149.891C114.438 149.773 114.242 149.614 114.102 149.412C113.968 149.205 113.901 148.972 113.901 148.715C113.901 148.463 113.96 148.236 114.077 148.034C114.2 147.833 114.399 147.673 114.674 147.556C114.948 147.438 115.312 147.379 115.766 147.379H117.068V148.076H115.841C115.483 148.076 115.242 148.135 115.119 148.253C114.996 148.365 114.934 148.505 114.934 148.673C114.934 148.863 115.01 149.014 115.161 149.126C115.312 149.238 115.522 149.294 115.791 149.294C116.048 149.294 116.278 149.236 116.48 149.118C116.687 149 116.835 148.827 116.925 148.597L117.101 149.227C117 149.49 116.818 149.695 116.555 149.84C116.298 149.986 115.97 150.059 115.572 150.059ZM121.809 150.059C121.445 150.059 121.112 149.975 120.809 149.807C120.512 149.639 120.274 149.387 120.095 149.051C119.922 148.709 119.835 148.278 119.835 147.757C119.835 147.231 119.919 146.8 120.087 146.464C120.26 146.128 120.496 145.878 120.792 145.716C121.089 145.548 121.428 145.464 121.809 145.464C122.251 145.464 122.64 145.559 122.976 145.75C123.318 145.94 123.587 146.206 123.783 146.548C123.984 146.889 124.085 147.292 124.085 147.757C124.085 148.222 123.984 148.628 123.783 148.975C123.587 149.317 123.318 149.583 122.976 149.773C122.64 149.964 122.251 150.059 121.809 150.059ZM119.322 151.63V145.514H120.322V146.573L120.288 147.766L120.372 148.958V151.63H119.322ZM121.691 149.16C121.943 149.16 122.167 149.104 122.363 148.992C122.565 148.88 122.724 148.718 122.842 148.505C122.96 148.292 123.018 148.043 123.018 147.757C123.018 147.466 122.96 147.217 122.842 147.01C122.724 146.797 122.565 146.634 122.363 146.522C122.167 146.41 121.943 146.354 121.691 146.354C121.439 146.354 121.212 146.41 121.011 146.522C120.809 146.634 120.65 146.797 120.532 147.01C120.414 147.217 120.356 147.466 120.356 147.757C120.356 148.043 120.414 148.292 120.532 148.505C120.65 148.718 120.809 148.88 121.011 148.992C121.212 149.104 121.439 149.16 121.691 149.16ZM127.189 150.059C126.691 150.059 126.254 149.961 125.879 149.765C125.509 149.563 125.221 149.289 125.014 148.942C124.812 148.594 124.711 148.2 124.711 147.757C124.711 147.309 124.809 146.914 125.005 146.573C125.207 146.226 125.481 145.954 125.829 145.758C126.181 145.562 126.582 145.464 127.03 145.464C127.467 145.464 127.856 145.559 128.197 145.75C128.539 145.94 128.808 146.209 129.004 146.556C129.2 146.903 129.298 147.312 129.298 147.782C129.298 147.827 129.295 147.878 129.289 147.934C129.289 147.99 129.287 148.043 129.281 148.093H125.543V147.396H128.727L128.315 147.614C128.321 147.357 128.267 147.13 128.155 146.934C128.043 146.738 127.889 146.584 127.693 146.472C127.503 146.36 127.282 146.304 127.03 146.304C126.772 146.304 126.545 146.36 126.349 146.472C126.159 146.584 126.008 146.741 125.896 146.942C125.789 147.138 125.736 147.371 125.736 147.64V147.808C125.736 148.076 125.798 148.314 125.921 148.522C126.044 148.729 126.218 148.888 126.442 149C126.666 149.112 126.923 149.168 127.215 149.168C127.467 149.168 127.693 149.129 127.895 149.051C128.097 148.972 128.276 148.849 128.433 148.681L128.995 149.328C128.794 149.563 128.539 149.745 128.231 149.874C127.929 149.997 127.581 150.059 127.189 150.059ZM130.306 150V145.514H131.306V146.749L131.188 146.388C131.323 146.086 131.533 145.856 131.818 145.699C132.11 145.542 132.471 145.464 132.902 145.464V146.464C132.857 146.452 132.815 146.447 132.776 146.447C132.737 146.441 132.698 146.438 132.658 146.438C132.261 146.438 131.944 146.556 131.709 146.791C131.474 147.021 131.356 147.365 131.356 147.824V150H130.306ZM134.948 150L133.302 145.514H134.293L135.704 149.471H135.234L136.712 145.514H137.594L139.03 149.471H138.568L140.022 145.514H140.954L139.299 150H138.291L136.981 146.497H137.292L135.956 150H134.948ZM143.569 150.059C143.11 150.059 142.701 149.961 142.342 149.765C141.984 149.563 141.701 149.289 141.494 148.942C141.287 148.594 141.183 148.2 141.183 147.757C141.183 147.309 141.287 146.914 141.494 146.573C141.701 146.226 141.984 145.954 142.342 145.758C142.701 145.562 143.11 145.464 143.569 145.464C144.034 145.464 144.445 145.562 144.804 145.758C145.168 145.954 145.45 146.223 145.652 146.564C145.859 146.906 145.963 147.304 145.963 147.757C145.963 148.2 145.859 148.594 145.652 148.942C145.45 149.289 145.168 149.563 144.804 149.765C144.445 149.961 144.034 150.059 143.569 150.059ZM143.569 149.16C143.826 149.16 144.056 149.104 144.258 148.992C144.459 148.88 144.616 148.718 144.728 148.505C144.846 148.292 144.904 148.043 144.904 147.757C144.904 147.466 144.846 147.217 144.728 147.01C144.616 146.797 144.459 146.634 144.258 146.522C144.056 146.41 143.829 146.354 143.577 146.354C143.32 146.354 143.09 146.41 142.888 146.522C142.692 146.634 142.536 146.797 142.418 147.01C142.3 147.217 142.242 147.466 142.242 147.757C142.242 148.043 142.3 148.292 142.418 148.505C142.536 148.718 142.692 148.88 142.888 148.992C143.09 149.104 143.317 149.16 143.569 149.16ZM146.967 150V145.514H147.967V146.749L147.849 146.388C147.983 146.086 148.193 145.856 148.479 145.699C148.77 145.542 149.131 145.464 149.563 145.464V146.464C149.518 146.452 149.476 146.447 149.437 146.447C149.397 146.441 149.358 146.438 149.319 146.438C148.921 146.438 148.605 146.556 148.37 146.791C148.135 147.021 148.017 147.365 148.017 147.824V150H146.967ZM151.31 149L151.335 147.682L153.679 145.514H154.939L152.948 147.514L152.394 147.976L151.31 149ZM150.453 150V143.767H151.503V150H150.453ZM153.838 150L152.2 147.976L152.864 147.136L155.115 150H153.838Z" fill="black"/>
<path d="M161.467 150.34V148.834L167.24 141.287H169.566L163.877 148.834L162.789 148.499H172.076V150.34H161.467ZM167.893 153V150.34L167.959 148.499V146.14H170.001V153H167.893Z" fill="#2563EB"/>
<path d="M67.454 185.066C66.6286 185.066 65.8199 184.949 65.0279 184.714C64.247 184.469 63.5889 184.134 63.0535 183.71L63.9737 182.02C64.3976 182.366 64.9107 182.645 65.5131 182.857C66.1266 183.069 66.7624 183.175 67.4206 183.175C68.1903 183.175 68.7926 183.013 69.2277 182.69C69.6739 182.366 69.897 181.931 69.897 181.385C69.897 181.017 69.8021 180.693 69.6125 180.414C69.434 180.135 69.1105 179.923 68.642 179.778C68.1847 179.633 67.5544 179.561 66.7513 179.561H63.9235L64.5259 173.186H71.4029V175.01H65.329L66.4668 173.972L66.0151 178.741L64.8773 177.72H67.2365C68.3966 177.72 69.3281 177.876 70.0308 178.189C70.7447 178.49 71.2634 178.914 71.5869 179.46C71.9216 179.996 72.0889 180.609 72.0889 181.301C72.0889 181.981 71.9216 182.606 71.5869 183.175C71.2523 183.744 70.7391 184.201 70.0475 184.547C69.3671 184.893 68.5026 185.066 67.454 185.066Z" fill="#C00034"/>
<path d="M78.524 181.898V176.018H79.4228L81.9932 180.311H81.5228L84.0512 176.018H84.95L84.9584 181.898H83.9252L83.9168 177.64H84.1352L81.9848 181.226H81.4976L79.3136 177.64H79.5656V181.898H78.524ZM88.4618 181.957C88.0026 181.957 87.5938 181.859 87.2354 181.663C86.877 181.462 86.5942 181.187 86.387 180.84C86.1798 180.493 86.0762 180.098 86.0762 179.656C86.0762 179.208 86.1798 178.813 86.387 178.471C86.5942 178.124 86.877 177.852 87.2354 177.656C87.5938 177.46 88.0026 177.362 88.4618 177.362C88.9266 177.362 89.3382 177.46 89.6966 177.656C90.0606 177.852 90.3434 178.121 90.545 178.463C90.7522 178.804 90.8558 179.202 90.8558 179.656C90.8558 180.098 90.7522 180.493 90.545 180.84C90.3434 181.187 90.0606 181.462 89.6966 181.663C89.3382 181.859 88.9266 181.957 88.4618 181.957ZM88.4618 181.058C88.7194 181.058 88.949 181.002 89.1506 180.89C89.3522 180.778 89.509 180.616 89.621 180.403C89.7386 180.19 89.7974 179.941 89.7974 179.656C89.7974 179.364 89.7386 179.115 89.621 178.908C89.509 178.695 89.3522 178.533 89.1506 178.421C88.949 178.309 88.7222 178.253 88.4702 178.253C88.2126 178.253 87.983 178.309 87.7814 178.421C87.5854 178.533 87.4286 178.695 87.311 178.908C87.1934 179.115 87.1346 179.364 87.1346 179.656C87.1346 179.941 87.1934 180.19 87.311 180.403C87.4286 180.616 87.5854 180.778 87.7814 180.89C87.983 181.002 88.2098 181.058 88.4618 181.058ZM92.9296 181.898L91.006 177.413H92.098L93.7528 181.369H93.2152L94.9288 177.413H95.9368L94.0132 181.898H92.9296ZM98.5784 181.957C98.08 181.957 97.6432 181.859 97.268 181.663C96.8984 181.462 96.61 181.187 96.4028 180.84C96.2012 180.493 96.1004 180.098 96.1004 179.656C96.1004 179.208 96.1984 178.813 96.3944 178.471C96.596 178.124 96.8704 177.852 97.2176 177.656C97.5704 177.46 97.9708 177.362 98.4188 177.362C98.8556 177.362 99.2448 177.458 99.5864 177.648C99.928 177.838 100.197 178.107 100.393 178.454C100.589 178.802 100.687 179.21 100.687 179.681C100.687 179.726 100.684 179.776 100.678 179.832C100.678 179.888 100.676 179.941 100.67 179.992H96.932V179.294H100.116L99.704 179.513C99.7096 179.255 99.6564 179.028 99.5444 178.832C99.4324 178.636 99.2784 178.482 99.0824 178.37C98.892 178.258 98.6708 178.202 98.4188 178.202C98.1612 178.202 97.9344 178.258 97.7384 178.37C97.548 178.482 97.3968 178.639 97.2848 178.841C97.1784 179.037 97.1252 179.269 97.1252 179.538V179.706C97.1252 179.975 97.1868 180.213 97.31 180.42C97.4332 180.627 97.6068 180.787 97.8308 180.899C98.0548 181.011 98.3124 181.067 98.6036 181.067C98.8556 181.067 99.0824 181.028 99.284 180.949C99.4856 180.871 99.6648 180.748 99.8216 180.58L100.384 181.226C100.183 181.462 99.928 181.644 99.62 181.772C99.3176 181.896 98.9704 181.957 98.5784 181.957ZM104.118 181.898V176.018H105.21V181.898H104.118ZM109.245 177.362C109.603 177.362 109.922 177.432 110.202 177.572C110.488 177.712 110.712 177.928 110.874 178.219C111.037 178.505 111.118 178.874 111.118 179.328V181.898H110.068V179.462C110.068 179.065 109.973 178.768 109.782 178.572C109.597 178.376 109.337 178.278 109.001 178.278C108.755 178.278 108.536 178.328 108.346 178.429C108.155 178.53 108.007 178.681 107.901 178.883C107.8 179.079 107.749 179.328 107.749 179.63V181.898H106.699V177.413H107.699V178.622L107.523 178.253C107.679 177.967 107.906 177.749 108.203 177.598C108.505 177.441 108.853 177.362 109.245 177.362Z" fill="black"/>
</svg>
