<svg width="15" height="9" viewBox="0 0 15 9" fill="none" xmlns="http://www.w3.org/2000/svg">
<path d="M1.13086 7.40625V1.10742L0.0351562 0.679688L0.134766 0.205078H2.88867C3.65039 0.205078 4.32227 0.246094 4.9043 0.328125C5.48633 0.410156 5.98828 0.580078 6.41016 0.837891C6.99219 1.19336 7.41406 1.66211 7.67578 2.24414C7.9375 2.82227 8.06836 3.47656 8.06836 4.20703C8.06836 4.82031 7.98828 5.37109 7.82812 5.85938C7.66797 6.34766 7.42773 6.76172 7.10742 7.10156C6.79883 7.42969 6.42383 7.68359 5.98242 7.86328C5.54102 8.03906 5.06445 8.1582 4.55273 8.2207C4.04102 8.2832 3.46094 8.31445 2.8125 8.31445H0L0.0996094 7.82227L1.13086 7.40625ZM2.90625 7.73438C3.65625 7.625 4.26953 7.44922 4.74609 7.20703C5.22266 6.96094 5.58398 6.59961 5.83008 6.12305C6.08008 5.64648 6.20508 5.01562 6.20508 4.23047C6.20508 3 5.79883 2.08594 4.98633 1.48828C4.75195 1.31641 4.44922 1.16797 4.07812 1.04297C3.70703 0.914062 3.31641 0.822266 2.90625 0.767578V7.73438Z" fill="#1C1C1C"/>
<path d="M12.7617 0.732422C12.7031 0.728516 12.6113 0.726562 12.4863 0.726562C12.1543 0.726562 11.8457 0.757812 11.5605 0.820312C11.2754 0.882812 11.0391 0.962891 10.8516 1.06055C10.6641 1.1543 10.543 1.25195 10.4883 1.35352C10.4453 1.42773 10.4121 1.5293 10.3887 1.6582C10.3691 1.7832 10.3594 1.90625 10.3594 2.02734C10.3594 2.32812 10.4258 2.57031 10.5586 2.75391C10.6953 2.93359 10.8789 3.08203 11.1094 3.19922C11.3438 3.3125 11.7031 3.46094 12.1875 3.64453C12.6211 3.80859 12.9785 3.97656 13.2598 4.14844C13.5449 4.32031 13.7754 4.54883 13.9512 4.83398C14.1309 5.11523 14.2207 5.46875 14.2207 5.89453C14.2207 6.41406 14.0957 6.87305 13.8457 7.27148C13.5957 7.66992 13.248 7.97852 12.8027 8.19727C12.3574 8.41211 11.8496 8.51953 11.2793 8.51953C10.8184 8.51953 10.3809 8.45312 9.9668 8.32031C9.55273 8.1875 9.20898 8.02539 8.93555 7.83398L9.375 5.94141L9.99023 6.10547L10.1133 7.66406C10.2656 7.67578 10.4316 7.68164 10.6113 7.68164C11.084 7.68164 11.5352 7.63281 11.9648 7.53516C12.3984 7.43359 12.6836 7.28516 12.8203 7.08984C12.8789 7.00391 12.9258 6.88281 12.9609 6.72656C12.9961 6.57031 13.0137 6.4082 13.0137 6.24023C13.0137 5.91602 12.9434 5.6543 12.8027 5.45508C12.6621 5.25195 12.4844 5.09375 12.2695 4.98047C12.0586 4.86328 11.7559 4.72852 11.3613 4.57617C10.9277 4.41211 10.5645 4.24023 10.2715 4.06055C9.97852 3.88086 9.73828 3.64258 9.55078 3.3457C9.36328 3.04492 9.26953 2.66797 9.26953 2.21484C9.26953 1.77734 9.39648 1.39062 9.65039 1.05469C9.9043 0.71875 10.2441 0.458984 10.6699 0.275391C11.0957 0.0917969 11.5586 0 12.0586 0C12.2578 0 12.4668 0.0195312 12.6855 0.0585938C12.9082 0.0976562 13.084 0.134766 13.2129 0.169922L13.8281 0.146484L14.0332 2.19141L13.4883 2.33789L12.7617 0.732422Z" fill="url(#paint0_linear_1737_1373)"/>
<defs>
<linearGradient id="paint0_linear_1737_1373" x1="-0.345703" y1="5.81445" x2="15.6543" y2="5.81445" gradientUnits="userSpaceOnUse">
<stop stop-color="#F5C542"/>
<stop offset="1" stop-color="#E4B343"/>
</linearGradient>
</defs>
</svg>
