<svg width="68" height="9" viewBox="0 0 68 9" fill="none" xmlns="http://www.w3.org/2000/svg">
<path d="M2.92788 0.503883C3.80788 0.503883 4.57988 0.675883 5.24388 1.01988C5.91588 1.36388 6.43188 1.85588 6.79188 2.49588C7.15988 3.12788 7.34388 3.86388 7.34388 4.70388C7.34388 5.54388 7.15988 6.27988 6.79188 6.91188C6.43188 7.53588 5.91588 8.01988 5.24388 8.36388C4.57988 8.70788 3.80788 8.87988 2.92788 8.87988H-0.000124931V0.503883H2.92788ZM2.86788 7.45188C3.74788 7.45188 4.42788 7.21188 4.90788 6.73188C5.38788 6.25188 5.62788 5.57588 5.62788 4.70388C5.62788 3.83188 5.38788 3.15188 4.90788 2.66388C4.42788 2.16788 3.74788 1.91988 2.86788 1.91988H1.67988V7.45188H2.86788ZM17.8174 2.23188L15.8734 8.87988H14.0614L12.8494 4.23588L11.6374 8.87988H9.81344L7.85744 2.23188H9.56144L10.7374 7.29588L12.0094 2.23188H13.7854L15.0334 7.28388L16.2094 2.23188H17.8174ZM24.9064 5.41188C24.9064 5.65188 24.8904 5.86788 24.8584 6.05988H19.9984C20.0384 6.53988 20.2064 6.91588 20.5024 7.18788C20.7984 7.45988 21.1624 7.59588 21.5944 7.59588C22.2184 7.59588 22.6624 7.32788 22.9264 6.79188H24.7384C24.5464 7.43188 24.1784 7.95988 23.6344 8.37588C23.0904 8.78388 22.4224 8.98788 21.6304 8.98788C20.9904 8.98788 20.4144 8.84788 19.9024 8.56788C19.3984 8.27988 19.0024 7.87588 18.7144 7.35588C18.4344 6.83588 18.2944 6.23588 18.2944 5.55588C18.2944 4.86788 18.4344 4.26388 18.7144 3.74388C18.9944 3.22388 19.3864 2.82388 19.8904 2.54388C20.3944 2.26388 20.9744 2.12388 21.6304 2.12388C22.2624 2.12388 22.8264 2.25988 23.3224 2.53188C23.8264 2.80388 24.2144 3.19188 24.4864 3.69588C24.7664 4.19188 24.9064 4.76388 24.9064 5.41188ZM23.1664 4.93188C23.1584 4.49988 23.0024 4.15588 22.6984 3.89988C22.3944 3.63588 22.0224 3.50388 21.5824 3.50388C21.1664 3.50388 20.8144 3.63188 20.5264 3.88788C20.2464 4.13588 20.0744 4.48388 20.0104 4.93188H23.1664ZM27.8127 -0.000117302V8.87988H26.1327V-0.000117302H27.8127ZM31.1525 -0.000117302V8.87988H29.4725V-0.000117302H31.1525Z" fill="#1C1C1C"/>
<path d="M35.5604 8.96388C35.0084 8.96388 34.5124 8.86788 34.0724 8.67588C33.6404 8.47588 33.3004 8.20388 33.0524 7.85988C32.8044 7.50788 32.6764 7.10388 32.6684 6.64788H33.8324C33.8724 7.03988 34.0324 7.37188 34.3124 7.64388C34.6004 7.90788 35.0164 8.03988 35.5604 8.03988C36.0804 8.03988 36.4884 7.91188 36.7844 7.65588C37.0884 7.39188 37.2404 7.05588 37.2404 6.64788C37.2404 6.32788 37.1524 6.06788 36.9764 5.86788C36.8004 5.66788 36.5804 5.51588 36.3164 5.41188C36.0524 5.30788 35.6964 5.19588 35.2484 5.07588C34.6964 4.93188 34.2524 4.78788 33.9164 4.64388C33.5884 4.49988 33.3044 4.27588 33.0644 3.97188C32.8324 3.65988 32.7164 3.24388 32.7164 2.72388C32.7164 2.26788 32.8324 1.86388 33.0644 1.51188C33.2964 1.15988 33.6204 0.887882 34.0364 0.695882C34.4604 0.503882 34.9444 0.407882 35.4884 0.407882C36.2724 0.407882 36.9124 0.603883 37.4084 0.995883C37.9124 1.38788 38.1964 1.90788 38.2604 2.55588H37.0604C37.0204 2.23588 36.8524 1.95588 36.5564 1.71588C36.2604 1.46788 35.8684 1.34388 35.3804 1.34388C34.9244 1.34388 34.5524 1.46388 34.2644 1.70388C33.9764 1.93588 33.8324 2.26388 33.8324 2.68788C33.8324 2.99188 33.9164 3.23988 34.0844 3.43188C34.2604 3.62388 34.4724 3.77188 34.7204 3.87588C34.9764 3.97188 35.3324 4.08388 35.7884 4.21188C36.3404 4.36388 36.7844 4.51588 37.1204 4.66788C37.4564 4.81188 37.7444 5.03988 37.9844 5.35188C38.2244 5.65588 38.3444 6.07188 38.3444 6.59988C38.3444 7.00788 38.2364 7.39188 38.0204 7.75188C37.8044 8.11188 37.4844 8.40388 37.0604 8.62788C36.6364 8.85188 36.1364 8.96388 35.5604 8.96388ZM47.8593 2.18388C48.3713 2.18388 48.8273 2.29188 49.2273 2.50788C49.6273 2.71588 49.9433 3.03188 50.1753 3.45588C50.4073 3.87988 50.5233 4.39588 50.5233 5.00388V8.87988H49.4433V5.15988C49.4433 4.50388 49.2793 4.00388 48.9513 3.65988C48.6313 3.30788 48.1953 3.13188 47.6433 3.13188C47.0753 3.13188 46.6233 3.31588 46.2873 3.68388C45.9513 4.04388 45.7833 4.56788 45.7833 5.25588V8.87988H44.7033V5.15988C44.7033 4.50388 44.5393 4.00388 44.2113 3.65988C43.8913 3.30788 43.4553 3.13188 42.9033 3.13188C42.3353 3.13188 41.8833 3.31588 41.5473 3.68388C41.2113 4.04388 41.0433 4.56788 41.0433 5.25588V8.87988H39.9513V2.30388H41.0433V3.25188C41.2593 2.90788 41.5473 2.64388 41.9073 2.45988C42.2753 2.27588 42.6793 2.18388 43.1193 2.18388C43.6713 2.18388 44.1593 2.30788 44.5833 2.55588C45.0073 2.80388 45.3233 3.16788 45.5313 3.64788C45.7153 3.18388 46.0193 2.82388 46.4433 2.56788C46.8673 2.31188 47.3393 2.18388 47.8593 2.18388ZM51.9066 5.56788C51.9066 4.89588 52.0426 4.30788 52.3146 3.80388C52.5866 3.29188 52.9586 2.89588 53.4306 2.61588C53.9106 2.33588 54.4426 2.19588 55.0266 2.19588C55.6026 2.19588 56.1026 2.31988 56.5266 2.56788C56.9506 2.81588 57.2666 3.12788 57.4746 3.50388V2.30388H58.5786V8.87988H57.4746V7.65588C57.2586 8.03988 56.9346 8.35988 56.5026 8.61588C56.0786 8.86388 55.5826 8.98788 55.0146 8.98788C54.4306 8.98788 53.9026 8.84388 53.4306 8.55588C52.9586 8.26788 52.5866 7.86388 52.3146 7.34388C52.0426 6.82388 51.9066 6.23188 51.9066 5.56788ZM57.4746 5.57988C57.4746 5.08388 57.3746 4.65188 57.1746 4.28388C56.9746 3.91588 56.7026 3.63588 56.3586 3.44388C56.0226 3.24388 55.6506 3.14388 55.2426 3.14388C54.8346 3.14388 54.4626 3.23988 54.1266 3.43188C53.7906 3.62388 53.5226 3.90388 53.3226 4.27188C53.1226 4.63988 53.0226 5.07188 53.0226 5.56788C53.0226 6.07188 53.1226 6.51188 53.3226 6.88788C53.5226 7.25588 53.7906 7.53988 54.1266 7.73988C54.4626 7.93188 54.8346 8.02788 55.2426 8.02788C55.6506 8.02788 56.0226 7.93188 56.3586 7.73988C56.7026 7.53988 56.9746 7.25588 57.1746 6.88788C57.3746 6.51188 57.4746 6.07588 57.4746 5.57988ZM61.516 3.37188C61.708 2.99588 61.98 2.70388 62.332 2.49588C62.692 2.28788 63.128 2.18388 63.64 2.18388V3.31188H63.352C62.128 3.31188 61.516 3.97588 61.516 5.30388V8.87988H60.424V2.30388H61.516V3.37188ZM66.2326 3.20388V7.07988C66.2326 7.39988 66.3006 7.62788 66.4366 7.76388C66.5726 7.89188 66.8086 7.95588 67.1446 7.95588H67.9486V8.87988H66.9646C66.3566 8.87988 65.9006 8.73988 65.5966 8.45988C65.2926 8.17988 65.1406 7.71988 65.1406 7.07988V3.20388H64.2886V2.30388H65.1406V0.647882H66.2326V2.30388H67.9486V3.20388H66.2326Z" fill="url(#paint0_linear_1736_1371)"/>
<defs>
<linearGradient id="paint0_linear_1736_1371" x1="-0.828125" y1="4.87988" x2="69.1719" y2="4.87988" gradientUnits="userSpaceOnUse">
<stop stop-color="#F5C542"/>
<stop offset="1" stop-color="#E4B343"/>
</linearGradient>
</defs>
</svg>
